<svg xmlns="http://www.w3.org/2000/svg" viewBox="0 0 512 512"><rect width="512" height="512" rx="112" fill="#09100c"/><circle cx="256" cy="200" r="145" fill="#183522"/><path d="M250 370c-10-92 17-155 85-211-57 30-89 64-103 112-17-48-52-80-104-104 61 52 84 116 76 203h46Z" fill="#b88b52"/><path d="M118 180c38-62 94-84 146-47-24-63-4-116 54-136 0 55 32 87 89 95-39 26-55 63-47 111-38-33-79-43-123-25-32-22-72-21-119 2Z" fill="#6f9874"/><path d="M130 354h252v32H130z" rx="12" fill="#b17b55"/><path d="M142 382h228l-24 66H166z" fill="#8a5d43"/></svg>
