<svg xmlns="http://www.w3.org/2000/svg" viewBox="0 0 512 512">
  <rect width="512" height="512" rx="112" fill="#07100b"/>
  <path d="M258 82c-15 63-3 106 20 149 21 41 20 86-3 133" fill="none" stroke="#8a5739" stroke-width="31" stroke-linecap="round"/>
  <path d="M263 183c-54-20-91-10-128 18M273 226c59-34 101-30 139-8M270 285c-45-16-85-6-117 20" fill="none" stroke="#755039" stroke-width="20" stroke-linecap="round"/>
  <g fill="#315d3f"><ellipse cx="126" cy="178" rx="74" ry="47"/><ellipse cx="199" cy="147" rx="78" ry="52"/><ellipse cx="365" cy="196" rx="91" ry="56"/><ellipse cx="165" cy="302" rx="83" ry="51"/><ellipse cx="325" cy="279" rx="98" ry="58"/></g>
  <path d="M122 372h268l-28 79H151z" fill="#60463b"/><rect x="105" y="356" width="302" height="34" rx="12" fill="#765448"/>
</svg>
